<?xml version="1.0" standalone="no"?>
<!DOCTYPE svg PUBLIC "-//W3C//DTD SVG 20010904//EN"
 "http://www.w3.org/TR/2001/REC-SVG-20010904/DTD/svg10.dtd">
<svg version="1.0" xmlns="http://www.w3.org/2000/svg"
 width="512.000000pt" height="512.000000pt" viewBox="0 0 512.000000 512.000000"
 preserveAspectRatio="xMidYMid meet">
<metadata>
Created by potrace 1.16, written by Peter Selinger 2001-2019
</metadata>
<g transform="translate(0.000000,512.000000) scale(0.100000,-0.100000)"
fill="#000000" stroke="none">
<path d="M877 4758 c-14 -13 -217 -254 -451 -536 -500 -602 -467 -538 -359
-679 1370 -1798 2420 -3172 2435 -3185 26 -23 87 -23 114 0 17 13 983 1275
2437 3185 108 141 141 77 -359 679 -234 282 -437 523 -451 536 l-24 22 -1659
0 -1659 0 -24 -22z m1069 -547 c-339 -339 -391 -388 -401 -373 -7 9 -101 170
-210 357 -108 187 -206 355 -217 373 l-20 32 619 0 618 0 -389 -389z m2056
357 c-11 -18 -109 -186 -217 -373 -109 -187 -203 -348 -210 -357 -10 -15 -62
34 -401 373 l-389 389 618 0 619 0 -20 -32z m-1037 -408 l400 -400 -805 0
-805 0 400 400 c220 220 402 400 405 400 3 0 185 -180 405 -400z m-1815 -8
c116 -200 214 -370 217 -378 4 -12 -75 -14 -541 -14 l-546 0 321 386 c177 212
325 382 329 377 4 -4 103 -172 220 -371z m3369 -7 l321 -385 -545 0 c-300 0
-545 3 -545 6 0 7 441 764 445 764 2 0 148 -173 324 -385z m-3009 -697 c23
-73 213 -673 421 -1332 208 -660 378 -1201 376 -1202 -1 -1 -416 540 -922
1203 -506 664 -964 1264 -1018 1335 l-98 128 600 0 600 0 41 -132z m1944 110
c-4 -13 -206 -652 -449 -1422 -243 -769 -445 -1395 -448 -1390 -3 5 -203 638
-446 1406 -243 768 -444 1404 -447 1412 -6 14 85 16 896 16 l901 0 -7 -22z
m1299 -106 c-54 -71 -512 -671 -1018 -1335 -506 -663 -921 -1204 -922 -1203
-2 1 168 542 376 1202 208 659 398 1259 421 1332 l41 132 600 0 600 0 -98
-128z"/>
</g>
</svg>
