<?xml version="1.0" standalone="no"?>
<!DOCTYPE svg PUBLIC "-//W3C//DTD SVG 20010904//EN"
 "http://www.w3.org/TR/2001/REC-SVG-20010904/DTD/svg10.dtd">
<svg version="1.0" xmlns="http://www.w3.org/2000/svg"
 width="512.000000pt" height="512.000000pt" viewBox="0 0 512.000000 512.000000"
 preserveAspectRatio="xMidYMid meet">
<metadata>
Created by potrace 1.16, written by Peter Selinger 2001-2019
</metadata>
<g transform="translate(0.000000,512.000000) scale(0.100000,-0.100000)"
fill="#000000" stroke="none">
<path d="M2094 5091 c-21 -15 -87 -78 -146 -139 -118 -121 -128 -144 -87 -196
15 -20 29 -26 57 -26 33 0 47 10 148 111 l111 111 31 -49 c74 -116 106 -225
106 -363 0 -116 -14 -180 -64 -285 -82 -170 -216 -285 -410 -351 -43 -15 -83
-19 -190 -19 -121 1 -143 3 -208 27 -71 26 -192 93 -192 106 0 4 113 119 250
257 215 216 250 255 250 280 -1 60 -57 95 -113 71 -18 -8 -150 -132 -294 -277
-278 -281 -285 -291 -268 -367 19 -86 224 -209 414 -247 102 -21 292 -16 386
10 150 41 316 148 413 267 69 83 135 213 163 318 32 117 32 309 0 424 -37 138
-138 312 -202 350 -44 26 -110 21 -155 -13z"/>
<path d="M3325 5088 c-32 -31 -38 -49 -105 -297 -38 -145 -70 -278 -70 -296 0
-46 38 -97 85 -114 38 -13 51 -11 295 54 295 77 333 92 354 134 42 81 -13 257
-119 378 -85 97 -239 173 -350 173 -49 0 -59 -4 -90 -32z m193 -158 c76 -36
148 -106 185 -179 47 -95 54 -89 -171 -149 -108 -29 -200 -52 -203 -52 -11 0
104 410 115 410 6 0 39 -13 74 -30z"/>
<path d="M1950 4580 c-26 -26 -26 -80 -1 -111 16 -19 30 -24 90 -27 82 -5 123
8 140 44 16 36 14 58 -10 88 -19 25 -25 26 -110 26 -76 0 -92 -3 -109 -20z"/>
<path d="M2688 4453 c-77 -50 -192 -255 -227 -403 -35 -145 -37 -308 -5 -434
5 -20 -2 -28 -48 -53 -50 -29 -122 -97 -146 -139 -8 -14 -15 -16 -25 -9 -90
66 -177 114 -247 139 -73 26 -100 30 -190 30 -76 1 -119 -4 -156 -17 l-51 -18
-75 41 c-151 81 -298 111 -449 90 -433 -59 -711 -471 -604 -896 8 -32 34 -97
57 -144 35 -70 60 -102 140 -182 l97 -98 -16 -46 c-21 -63 -14 -194 14 -251
l21 -43 -109 0 c-121 0 -149 -9 -192 -60 -40 -47 -48 -89 -36 -209 41 -435
216 -845 503 -1177 182 -211 392 -373 658 -507 l123 -62 795 0 795 0 106 51
c424 205 763 538 970 954 130 261 209 558 213 796 1 93 -1 103 -26 140 -39 60
-77 74 -198 74 -88 0 -101 2 -98 16 2 10 25 23 58 33 143 44 260 134 311 237
74 150 25 305 -134 419 l-27 20 41 55 c149 198 181 450 81 633 -33 61 -101
131 -151 157 -36 18 -38 21 -50 99 -19 129 -69 255 -113 285 -31 22 -74 20
-98 -4 -34 -34 -34 -62 -1 -133 17 -37 37 -93 45 -127 l14 -60 -48 0 c-49 0
-60 9 -60 49 0 9 -16 49 -35 89 -88 183 -288 288 -487 254 -83 -14 -167 -52
-218 -98 l-37 -33 -34 35 -34 36 30 24 c129 108 290 157 437 134 39 -6 105
-24 147 -41 46 -18 84 -28 98 -24 59 14 81 79 43 128 -27 34 -167 84 -275 97
-189 23 -368 -27 -531 -150 l-67 -52 -183 183 -182 182 -54 4 c-39 3 -60 -1
-80 -14z m390 -476 l313 -314 -65 -32 c-105 -52 -190 -163 -241 -319 -15 -47
-20 -53 -39 -48 -11 3 -44 6 -72 6 l-51 0 -42 85 c-50 102 -124 181 -199 216
-59 27 -64 38 -83 159 -24 161 19 356 114 503 20 31 40 57 44 57 5 0 149 -141
321 -313z m710 -102 c98 -29 189 -128 207 -225 6 -35 6 -36 -46 -60 -29 -14
-76 -41 -105 -61 l-52 -37 -151 152 -152 152 23 21 c71 65 177 87 276 58z
m-2493 -366 c22 -6 66 -22 97 -36 l57 -25 -26 -40 c-19 -28 -31 -37 -42 -32
-111 47 -117 48 -221 48 -85 0 -116 -4 -162 -23 -171 -67 -283 -219 -295 -402
-12 -166 64 -322 200 -414 l47 -32 -41 -28 c-52 -34 -65 -28 -152 65 -95 100
-157 248 -157 375 0 68 28 177 65 251 114 233 383 357 630 293z m2246 -35 c42
-29 67 -61 104 -134 39 -78 52 -90 97 -90 34 0 45 6 86 51 63 68 179 144 258
169 284 87 491 -120 404 -404 -25 -79 -101 -195 -169 -258 -45 -41 -51 -52
-51 -86 0 -46 11 -57 94 -97 73 -35 141 -101 154 -149 32 -113 -101 -229 -315
-276 -95 -21 -123 -41 -123 -89 1 -14 7 -37 15 -51 8 -14 14 -29 15 -35 0 -5
-108 98 -240 230 l-240 240 220 220 c200 201 220 224 220 255 0 46 -33 80 -79
80 -32 0 -52 -17 -256 -220 l-220 -220 -165 166 c-91 91 -180 174 -198 185
-41 26 -111 28 -147 5 -33 -22 -110 -125 -143 -193 -15 -29 -29 -53 -33 -53
-14 0 -33 106 -33 180 1 183 105 257 261 186 106 -49 135 -32 163 99 26 115
67 203 124 259 69 69 125 78 197 30z m-916 -59 c44 -25 106 -106 126 -163 10
-30 8 -35 -21 -69 -102 -116 -124 -321 -56 -522 l23 -69 -51 23 c-63 27 -122
42 -206 50 l-65 7 -157 156 c-152 151 -159 157 -199 157 -49 0 -79 -30 -79
-78 0 -25 19 -49 115 -147 l116 -117 -59 -22 c-173 -62 -361 -252 -412 -413
l-11 -38 -49 25 c-98 49 -150 112 -150 180 0 72 61 140 172 193 68 32 78 44
78 94 0 24 -15 47 -73 108 -110 117 -167 241 -167 365 0 143 89 255 227 286
129 29 306 -36 431 -161 39 -38 81 -72 94 -75 46 -12 76 10 108 78 52 110 124
176 194 177 16 0 48 -11 71 -25z m-1337 -177 c72 -37 70 -87 -3 -88 -46 0
-149 -53 -194 -100 -58 -60 -89 -131 -103 -234 l-12 -89 -38 42 c-145 164 -74
419 136 487 59 20 157 12 214 -18z m76 -271 c9 -49 69 -169 117 -233 39 -53
40 -57 23 -67 -11 -5 -46 -37 -80 -71 -71 -72 -94 -127 -94 -226 0 -54 6 -78
31 -128 37 -74 115 -148 200 -191 l62 -31 -320 0 -319 0 -26 28 c-67 71 -86
169 -47 249 33 68 127 131 221 148 75 14 88 60 45 163 -55 137 -41 258 41 335
29 28 90 56 123 57 11 0 19 -11 23 -33z m1853 -359 c-47 -80 -67 -159 -67
-260 0 -111 16 -176 64 -263 l36 -65 -80 0 c-79 0 -80 0 -85 28 -29 138 -69
239 -131 324 -19 26 -34 56 -34 65 0 71 71 252 130 332 l32 44 81 -81 80 -80
-26 -44z m623 -578 c-8 -5 -87 -10 -175 -10 -179 0 -187 3 -260 76 -98 100
-126 275 -64 396 l21 41 246 -247 c197 -197 244 -248 232 -256z m-1336 460
c99 -25 165 -61 240 -130 74 -68 130 -154 156 -238 30 -96 28 -102 -24 -102
l-45 0 -16 58 c-96 334 -517 446 -765 202 -60 -59 -116 -157 -126 -222 l-7
-38 -49 0 -50 0 7 37 c30 159 152 319 300 392 125 62 247 75 379 41z m-14
-266 c30 -14 70 -40 88 -57 32 -30 82 -114 82 -137 0 -7 -97 -10 -290 -10
-159 0 -290 2 -290 5 0 17 34 82 60 115 82 103 231 139 350 84z m1949 -363
c13 -8 13 -27 -2 -143 -9 -74 -19 -142 -23 -151 -6 -16 -37 -17 -372 -17 -362
0 -366 0 -389 -22 -29 -27 -30 -76 -3 -106 21 -22 24 -22 370 -22 237 0 350
-3 350 -10 0 -25 -77 -214 -128 -315 -191 -375 -498 -677 -880 -867 l-107 -53
-730 0 -730 0 -100 48 c-330 160 -603 400 -798 702 -81 126 -170 316 -213 453
l-13 42 1356 0 1357 0 23 22 c29 27 30 67 2 102 l-20 26 -1379 0 -1378 0 -12
69 c-20 120 -28 225 -17 239 7 9 402 12 1916 12 1128 0 1912 -4 1920 -9z"/>
<path d="M2787 3890 c-35 -28 -38 -89 -5 -120 19 -17 35 -20 114 -20 88 0 94
1 113 26 26 33 27 75 2 105 -17 21 -29 24 -108 27 -78 3 -91 1 -116 -18z"/>
<path d="M2959 3571 c-52 -53 -59 -64 -59 -99 0 -32 6 -45 26 -61 46 -36 90
-23 156 46 48 49 60 83 47 123 -13 36 -35 50 -79 50 -25 0 -44 -12 -91 -59z"/>
<path d="M1841 4334 c-37 -47 -28 -80 37 -146 68 -67 105 -76 147 -33 43 42
34 79 -33 147 -50 49 -64 58 -95 58 -27 0 -41 -7 -56 -26z"/>
<path d="M1614 4259 c-32 -16 -44 -52 -44 -128 0 -88 22 -121 80 -121 63 0 80
26 80 126 0 63 -4 87 -17 103 -21 25 -70 35 -99 20z"/>
</g>
</svg>
