<?xml version="1.0" standalone="no"?>
<!DOCTYPE svg PUBLIC "-//W3C//DTD SVG 20010904//EN"
 "http://www.w3.org/TR/2001/REC-SVG-20010904/DTD/svg10.dtd">
<svg version="1.0" xmlns="http://www.w3.org/2000/svg"
 width="512.000000pt" height="512.000000pt" viewBox="0 0 512.000000 512.000000"
 preserveAspectRatio="xMidYMid meet">
<metadata>
Created by potrace 1.16, written by Peter Selinger 2001-2019
</metadata>
<g transform="translate(0.000000,512.000000) scale(0.100000,-0.100000)"
fill="#000000" stroke="none">
<path d="M1071 4240 c-302 -74 -541 -339 -583 -647 l-12 -89 -72 -12 c-180
-28 -323 -158 -370 -336 -27 -100 -12 -232 37 -328 30 -59 115 -145 177 -180
l52 -30 0 -323 c0 -372 8 -434 66 -546 20 -38 59 -93 85 -122 27 -28 49 -56
49 -62 0 -5 -30 -137 -66 -291 -75 -317 -76 -339 -21 -421 61 -91 193 -129
292 -84 22 10 57 36 77 59 39 43 47 66 94 250 l29 112 1637 0 1637 0 10 -37
c5 -21 21 -84 35 -140 34 -134 39 -145 81 -192 49 -54 105 -74 194 -69 87 5
142 39 183 113 43 78 39 130 -37 440 l-65 267 59 64 c65 69 112 158 130 242 7
33 11 184 11 397 l0 344 47 23 c71 35 155 122 191 199 82 173 57 370 -65 500
-89 96 -182 142 -308 155 l-62 6 -6 72 c-23 304 -270 586 -582 666 -76 20
-112 20 -1464 19 -1301 0 -1391 -2 -1460 -19z m2929 -156 c245 -87 410 -295
436 -546 l7 -66 -44 -22 c-75 -38 -135 -88 -172 -142 -69 -100 -70 -105 -76
-502 l-6 -359 -43 37 c-57 47 -153 92 -226 105 -81 15 -917 15 -988 0 -119
-25 -253 -112 -326 -214 l-22 -30 -22 30 c-73 102 -207 189 -326 214 -34 7
-213 11 -495 11 -485 0 -514 -3 -627 -60 -34 -17 -78 -47 -100 -66 l-40 -36 0
328 c0 245 -4 342 -14 380 -16 60 -55 141 -92 189 -26 35 -141 117 -179 129
-20 6 -20 11 -14 81 15 151 73 271 188 386 58 58 96 86 161 118 151 74 60 70
1575 68 l1360 -2 85 -31z m-3386 -764 c53 -28 112 -85 139 -135 22 -39 22 -49
27 -622 5 -542 6 -584 23 -600 17 -17 100 -18 1737 -18 1637 0 1720 1 1737 18
17 16 18 58 23 590 6 645 1 606 86 697 61 65 129 94 219 94 116 0 210 -57 272
-163 35 -59 43 -166 18 -242 -24 -71 -110 -159 -179 -182 -92 -32 -86 -2 -86
-413 0 -231 -4 -382 -11 -416 -31 -145 -138 -261 -278 -302 -49 -14 -235 -16
-1801 -16 -1566 0 -1752 2 -1801 16 -140 41 -247 157 -278 302 -7 34 -11 185
-11 413 0 219 -4 368 -10 379 -5 10 -27 24 -47 30 -55 17 -137 75 -167 118
-66 95 -74 223 -20 321 80 147 262 206 408 131z m1511 -870 c171 -25 303 -148
334 -313 l8 -47 -768 0 -768 0 6 33 c35 187 160 301 363 331 58 8 761 5 825
-4z m1796 -31 c103 -49 181 -140 213 -248 30 -102 120 -91 -750 -91 l-767 0 7
47 c19 142 145 279 289 313 18 5 239 8 492 7 l460 -2 56 -26z m-3198 -942 l47
-11 0 -95 c-1 -122 -65 -409 -101 -447 -25 -27 -82 -32 -110 -11 -45 34 -44
43 22 323 53 222 65 264 78 258 9 -4 37 -12 64 -17z m3778 -227 c32 -129 58
-250 59 -268 0 -72 -88 -109 -142 -59 -21 19 -33 57 -72 218 -29 122 -46 217
-46 255 l0 60 63 16 c34 8 66 14 71 14 4 -1 34 -107 67 -236z m-351 150 l0
-60 -1615 0 -1615 0 0 60 0 60 1615 0 1615 0 0 -60z"/>
<path d="M1716 3669 c-59 -70 -15 -169 76 -169 54 0 83 19 98 65 9 26 9 44 0
70 -15 46 -44 65 -101 65 -40 0 -51 -4 -73 -31z"/>
<path d="M2489 3671 c-23 -23 -29 -38 -29 -71 0 -118 177 -141 206 -26 3 14 3
38 0 52 -19 76 -120 102 -177 45z"/>
<path d="M3256 3669 c-59 -70 -15 -169 76 -169 54 0 83 19 98 65 9 26 9 44 0
70 -15 46 -44 65 -101 65 -40 0 -51 -4 -73 -31z"/>
<path d="M1346 3245 c-42 -22 -55 -44 -56 -93 0 -110 148 -144 196 -44 42 88
-55 183 -140 137z"/>
<path d="M2113 3245 c-39 -17 -53 -42 -53 -95 0 -89 100 -132 169 -74 26 22
31 33 31 71 0 57 -14 81 -55 99 -42 17 -51 17 -92 -1z"/>
<path d="M2883 3245 c-31 -13 -63 -59 -63 -90 0 -31 31 -82 56 -94 77 -35 154
11 154 91 0 48 -23 82 -67 99 -32 12 -41 11 -80 -6z"/>
<path d="M3640 3238 c-88 -59 -51 -188 54 -188 62 0 96 30 103 91 5 40 2 50
-23 78 -40 44 -88 50 -134 19z"/>
</g>
</svg>
